<svg xmlns="http://www.w3.org/2000/svg" id="Logo_Netex" width="226.829" height="80" data-name="Logo Netex" viewBox="0 0 226.829 80">
    <defs>
        <style>
            .cls-1{fill:none}.cls-2{fill:#fff}.cls-3{fill:#035c80;opacity:.27}
        </style>
    </defs>
    <path id="Rectangle_4" d="M0 0h226.829v80H0z" class="cls-1" data-name="Rectangle 4"/>
    <g id="Group_13661" data-name="Group 13661" transform="translate(-1577 100.829)">
        <g id="Group_1" data-name="Group 1" transform="translate(1608.976 -80.829)">
            <path id="Path_2" d="M29.531 51.471l-1.862-.512-4.515 6.005c-.466-.14-.978-.233-1.443-.372l1.815-6.75-1.769-.466-1.815 6.75c-.466-.14-.978-.279-1.443-.419l-.931-7.495-1.816-.512.931 7.448c-1.443-.419-2.886-.838-4.283-1.3a10.1 10.1 0 0 0 9.776 7.541 9.9 9.9 0 0 0 7.215-3.072 70.22 70.22 0 0 1-4.283-.978z" class="cls-2" data-name="Path 2" transform="translate(-6.638 -25.622)"/>
            <path id="Path_3" d="M43.222 54.7L41.5 56.981l1.676.7 1.909-2.467z" class="cls-3" data-name="Path 3" transform="translate(-22.192 -29.332)"/>
            <path id="Path_4" d="M19.4 47.8l.186 1.3 1.862.791-.186-1.583z" class="cls-3" data-name="Path 4" transform="translate(-10.38 -25.628)"/>
            <path id="Path_5" d="M32.178 12.537l-.326-.185v-.417a5.886 5.886 0 0 0-4.376-5.511 5.473 5.473 0 0 0-1.49-.185h-.466l-.186-.417A10.4 10.4 0 0 0 18.679.31 10.2 10.2 0 0 0 7.646 4.432a1.159 1.159 0 0 0-.186.324 2.011 2.011 0 0 0-.186.324c-.047.046-.047.093-.093.185a1.159 1.159 0 0 1-.186.324c-.047.046-.047.093-.093.185l-.14.324-.372.093a7.458 7.458 0 0 0-6.1 5.557 7.753 7.753 0 0 0 5.493 9.494l20.2 5.372a7.774 7.774 0 0 0 6.005-.787 7.463 7.463 0 0 0 3.635-4.727 7.645 7.645 0 0 0-3.445-8.563zm-1.4 6.808a4.6 4.6 0 0 1-5.726 3.2l-5.865-1.575-6.377-1.714-4.419-1.162a4.562 4.562 0 0 1-3.259-5.6 4.3 4.3 0 0 1 4.841-3.52v-.05c0-.046.047-.093.047-.139v-.046c0-.046.047-.046.047-.093s.047-.093.047-.139c.047-.093.047-.139.093-.185V8.23c0-.046.047-.093.047-.139S10.3 8.044 10.3 8s.047-.093.047-.139v-.048c0-.046.047-.046.047-.093a.161.161 0 0 1 .047-.093c0-.046.047-.046.047-.093a2561.553 2561.553 0 0 1 .093-.093c0-.046.047-.046.047-.093a.161.161 0 0 1 .047-.093c.047-.046.047-.093.093-.139a6.774 6.774 0 0 1 .419-.6c.047-.046.047-.093.093-.093.14-.139.233-.278.372-.417l.093-.093c.279-.278.605-.509.884-.741a.145.145 0 0 1 .093-.046.046.046 0 0 0 .047-.046.145.145 0 0 1 .093-.046c.047-.046.093-.046.14-.093a4.136 4.136 0 0 1 .791-.37l.093-.046c.047 0 .093-.046.186-.046.047 0 .14-.046.186-.046s.093 0 .093-.046c.093 0 .14-.046.233-.046.186-.046.419-.093.652-.139h.14c.14 0 .279-.046.372-.046h.233a8.61 8.61 0 0 1 1.909.232 6.438 6.438 0 0 1 4 2.871 7.047 7.047 0 0 1 .652 1.341c0 .046.047.093.047.139v.046c0 .046 0 .046.047.093 0 .046.047.093.047.139s0 .046.047.093c0 .046 0 .093.047.093v.139a3.129 3.129 0 0 1 1.955-.093 3.935 3.935 0 0 1 2.514 2.177 3.057 3.057 0 0 1 .093 2.038v.046h.047a4.668 4.668 0 0 1 3.396 5.835z" class="cls-2" data-name="Path 5" transform="translate(-.022 .026)"/>
            <path id="Path_6" d="M31.812 51.3l-.512 1.909 1.722.7.559-2.141z" class="cls-3" data-name="Path 6" transform="translate(-16.74 -27.507)"/>
        </g>
        <path id="Path_1" d="M100.7 18.412h5.167v2.514a12.685 12.685 0 0 1-.093 1.49h.093a8.41 8.41 0 0 1 7.681-4.515c4.795 0 7.541 2.514 7.541 8.239v13.918h-5.353V27.21c0-2.607-.7-4.422-3.445-4.422a5.953 5.953 0 0 0-5.819 4.422 9.621 9.621 0 0 0-.372 2.89v9.915h-5.4z" class="cls-2" data-name="Path 1" transform="translate(1554.954 -90.449)"/>
        <path id="Path_2-2" d="M161.532 17.8c6.284 0 9.683 4.488 9.683 10.178 0 .648-.14 2.082-.14 2.082h-15.036c.326 3.747 3.305 5.691 6.564 5.691a10.906 10.906 0 0 0 6.284-2.36l2.095 3.84a13.825 13.825 0 0 1-8.752 3.054c-7.215 0-11.731-5.135-11.731-11.243-.046-6.615 4.563-11.242 11.033-11.242zm4.19 8.605c-.093-2.915-1.909-4.488-4.329-4.488a5.029 5.029 0 0 0-5.214 4.488z" class="cls-2" data-name="Path 2" transform="translate(1528.244 -90.331)"/>
        <path id="Path_3-2" d="M240.232 17.8c6.284 0 9.683 4.488 9.683 10.178 0 .648-.14 2.082-.14 2.082h-15.036c.326 3.747 3.305 5.691 6.564 5.691a10.906 10.906 0 0 0 6.284-2.36l2.095 3.84a13.825 13.825 0 0 1-8.752 3.054c-7.215 0-11.731-5.135-11.731-11.243-.046-6.615 4.563-11.242 11.033-11.242zm4.19 8.605c-.093-2.915-1.909-4.488-4.329-4.488a5.029 5.029 0 0 0-5.214 4.488z" class="cls-2" data-name="Path 3" transform="translate(1485.944 -90.331)"/>
        <path id="Path_4-2" d="M200.793 16.614H198v-4.562h2.933V6h5.26v6.052h4.934v4.562h-4.934v8.426c0 3.584 2.793 4.05 4.283 4.05a4.433 4.433 0 0 0 .978-.093v4.7a8.811 8.811 0 0 1-1.676.14c-3.026 0-9.031-.884-9.031-8.146v-9.077z" class="cls-2" data-name="Path 4" transform="translate(1502.786 -84.024)"/>
        <path id="Path_5-2" d="M283.629 29.592l-3.584-5.365c-.419-.648-.745-.694-1.676-.694h-1.583V19h3.771a3.364 3.364 0 0 1 3.538 2.035l2.141 3.515.7 1.388h.093s.372-.833.7-1.388l2.141-3.515A3.356 3.356 0 0 1 293.4 19h3.724v4.533h-1.536c-.884 0-1.21.093-1.676.694l-3.631 5.365 7.076 10.869H291.4l-3.771-5.966a9.585 9.585 0 0 1-.605-1.156h-.093a9.31 9.31 0 0 1-.652 1.156l-3.724 5.966H276.6z" class="cls-2" data-name="Path 5" transform="translate(1460.607 -90.973)"/>
        <path id="Path_6-2" d="M100.7 77.3h.745v4.05h-.745z" class="cls-2" data-name="Path 6" transform="translate(1554.979 -122.272)"/>
        <path id="Path_7" d="M104.5 77.3h.745l1.536 2.328c.14.233.326.652.326.652a6.424 6.424 0 0 1-.047-.652V77.3h.745v4.05h-.745l-1.536-2.328a7.776 7.776 0 0 1-.326-.652 6.425 6.425 0 0 1 .047.652v2.328h-.745z" class="cls-2" data-name="Path 7" transform="translate(1552.94 -122.272)"/>
        <path id="Path_8" d="M113.9 77.3h.745l1.536 2.328c.14.233.326.652.326.652a6.424 6.424 0 0 1-.047-.652V77.3h.745v4.05h-.745l-1.536-2.328a7.776 7.776 0 0 1-.326-.652 6.424 6.424 0 0 1 .047.652v2.328h-.745z" class="cls-2" data-name="Path 8" transform="translate(1547.899 -122.272)"/>
        <path id="Path_9" d="M124.793 77.1a2.118 2.118 0 1 1-2.095 2.095 2.03 2.03 0 0 1 2.095-2.095zm0 3.538a1.422 1.422 0 1 0-1.35-1.443 1.347 1.347 0 0 0 1.35 1.443z" class="cls-2" data-name="Path 9" transform="translate(1543.182 -122.165)"/>
        <path id="Path_10" d="M132.1 77.3h.791l.884 2.653a3.058 3.058 0 0 1 .14.605s.093-.372.14-.605l.884-2.653h.791l-1.49 4.05h-.74z" class="cls-2" data-name="Path 10" transform="translate(1538.141 -122.272)"/>
        <path id="Path_11" d="M142.314 80.326h-1.443l-.326 1.024h-.745l1.443-4.05h.791l1.443 4.05h-.745zm-.7-2.328a5.537 5.537 0 0 1-.186.652l-.372 1.071h1.071l-.372-1.071c-.047-.279-.14-.652-.14-.652z" class="cls-2" data-name="Path 11" transform="translate(1534.013 -122.272)"/>
        <path id="Path_12" d="M148.45 77.852h-1.35V77.2h3.4v.652h-1.35V81.3h-.7z" class="cls-2" data-name="Path 12" transform="translate(1530.099 -122.219)"/>
        <path id="Path_13" d="M155.6 77.3h.745v4.05h-.745z" class="cls-2" data-name="Path 13" transform="translate(1525.547 -122.272)"/>
        <path id="Path_14" d="M158.3 77.3h.791l.931 2.653a3.058 3.058 0 0 1 .14.605s.093-.372.14-.605l.884-2.653h.791l-1.49 4.05h-.745z" class="cls-2" data-name="Path 14" transform="translate(1524.094 -122.272)"/>
        <path id="Path_15" d="M167.4 77.3h2.421v.652h-1.676v1.071h1.35v.652h-1.35v1.117h1.769v.559H167.4z" class="cls-2" data-name="Path 15" transform="translate(1519.218 -122.272)"/>
        <path id="Path_16" d="M177.5 77.3h.745v3.445h1.769v.605H177.5z" class="cls-2" data-name="Path 16" transform="translate(1513.803 -122.272)"/>
        <path id="Path_17" d="M184.047 77.3h2.421v.652h-1.722v1.071h1.35v.652h-1.35v1.117h1.769v.559H184V77.3z" class="cls-2" data-name="Path 17" transform="translate(1510.317 -122.272)"/>
        <path id="Path_18" d="M192.714 80.326h-1.443l-.326 1.024h-.745l1.443-4.05h.791l1.443 4.05h-.745zM191.969 78a5.538 5.538 0 0 1-.186.652l-.372 1.071h1.071l-.372-1.071c-.047-.279-.14-.652-.14-.652z" class="cls-2" data-name="Path 18" transform="translate(1506.991 -122.272)"/>
        <path id="Path_19" d="M199.1 77.3h1.3a3.174 3.174 0 0 1 .838.093 1.114 1.114 0 0 1 .652 1.117 1.244 1.244 0 0 1-.7 1.117 1.375 1.375 0 0 1 .14.186l.838 1.536h-.838l-.791-1.536h-.7v1.537h-.739zm1.4 1.909a.589.589 0 0 0 .652-.652c0-.372-.186-.652-.745-.652h-.559v1.257h.652z" class="cls-2" data-name="Path 19" transform="translate(1502.221 -122.272)"/>
        <path id="Path_20" d="M207.2 77.3h.745l1.536 2.328c.14.233.326.652.326.652a6.424 6.424 0 0 1-.047-.652V77.3h.745v4.05h-.745l-1.536-2.328a7.776 7.776 0 0 1-.326-.652 6.421 6.421 0 0 1 .047.652v2.328h-.745z" class="cls-2" data-name="Path 20" transform="translate(1497.878 -122.272)"/>
        <path id="Path_21" d="M216.6 77.3h.745v4.05h-.745z" class="cls-2" data-name="Path 21" transform="translate(1492.844 -122.272)"/>
        <path id="Path_22" d="M220.4 77.3h.745l1.536 2.328c.14.233.326.652.326.652a6.426 6.426 0 0 1-.047-.652V77.3h.745v4.05h-.745l-1.536-2.328a7.776 7.776 0 0 1-.326-.652 6.421 6.421 0 0 1 .047.652v2.328h-.745z" class="cls-2" data-name="Path 22" transform="translate(1490.8 -122.272)"/>
        <path id="Path_23" d="M231.293 77.1a2.389 2.389 0 0 1 1.536.512l-.372.559a1.724 1.724 0 0 0-1.071-.372 1.318 1.318 0 0 0-1.4 1.4 1.347 1.347 0 0 0 1.35 1.443 1.581 1.581 0 0 0 1.024-.419v-.466h-.605V79.1h1.3v2.141h-.7v-.372a1.724 1.724 0 0 1-1.164.419 2.009 2.009 0 0 1-2-2.095 2.03 2.03 0 0 1 2.102-2.093z" class="cls-2" data-name="Path 23" transform="translate(1486.083 -122.165)"/>
        <path id="Path_24" d="M242.047 77.3h2.421v.652h-1.722v1.071h1.35v.652h-1.35v1.117h1.769v.559H242V77.3z" class="cls-2" data-name="Path 24" transform="translate(1479.223 -122.272)"/>
        <path id="Path_25" d="M249.557 79.3l-1.21-2h.838l.559.978c.14.233.279.512.279.512a2.988 2.988 0 0 1 .233-.512l.559-.978h.838l-1.21 2 1.257 2.05h-.838l-.652-1.117a3.684 3.684 0 0 1-.233-.466 3.684 3.684 0 0 1-.233.466l-.605 1.117h-.839z" class="cls-2" data-name="Path 25" transform="translate(1475.842 -122.272)"/>
        <path id="Path_26" d="M257 77.3h1.583a1.246 1.246 0 0 1 1.3 1.3 1.285 1.285 0 0 1-1.3 1.35h-.838v1.4H257zm1.443 2a.66.66 0 0 0 .7-.7.624.624 0 0 0-.652-.7h-.7v1.4z" class="cls-2" data-name="Path 26" transform="translate(1471.179 -122.272)"/>
        <path id="Path_27" d="M264.547 77.3h2.421v.652h-1.722v1.071h1.35v.652h-1.35v1.117h1.769v.559H264.5V77.3z" class="cls-2" data-name="Path 27" transform="translate(1467.076 -122.272)"/>
        <path id="Path_28" d="M271.7 77.3h1.3a2.909 2.909 0 0 1 .838.093 1.114 1.114 0 0 1 .652 1.117 1.244 1.244 0 0 1-.7 1.117 1.374 1.374 0 0 1 .14.186l.838 1.536h-.838l-.791-1.536h-.7v1.537h-.739zm1.4 1.909a.589.589 0 0 0 .652-.652c0-.372-.186-.652-.745-.652h-.559v1.257h.652z" class="cls-2" data-name="Path 28" transform="translate(1463.226 -122.272)"/>
        <path id="Path_29" d="M279.8 77.3h.745v4.05h-.745z" class="cls-2" data-name="Path 29" transform="translate(1458.897 -122.272)"/>
        <path id="Path_30" d="M283.547 77.3h2.421v.652h-1.722v1.071h1.35v.652h-1.35v1.117h1.769v.559H283.5V77.3z" class="cls-2" data-name="Path 30" transform="translate(1456.919 -122.272)"/>
        <path id="Path_31" d="M290.7 77.3h.745l1.536 2.328c.14.233.326.652.326.652a6.422 6.422 0 0 1-.047-.652V77.3h.745v4.05h-.745l-1.536-2.328a7.776 7.776 0 0 1-.326-.652 6.421 6.421 0 0 1 .047.652v2.328h-.745z" class="cls-2" data-name="Path 31" transform="translate(1453.072 -122.272)"/>
        <path id="Path_32" d="M301.541 77.1a2.093 2.093 0 0 1 1.49.559l-.372.559a1.826 1.826 0 0 0-1.117-.419 1.306 1.306 0 0 0-1.35 1.4 1.345 1.345 0 0 0 1.35 1.443 1.713 1.713 0 0 0 1.164-.512l.372.512a2.176 2.176 0 0 1-1.583.652 2.041 2.041 0 0 1-2.095-2.141 2.118 2.118 0 0 1 2.141-2.053z" class="cls-2" data-name="Path 32" transform="translate(1448.422 -122.165)"/>
        <path id="Path_33" d="M308.847 77.3h2.421v.652h-1.722v1.071h1.35v.652h-1.35v1.117h1.769v.559H308.8V77.3z" class="cls-2" data-name="Path 33" transform="translate(1443.397 -122.272)"/>
        <path id="Path_34" d="M315.772 80.219a1.581 1.581 0 0 0 1.024.419c.326 0 .605-.14.605-.512 0-.745-1.909-.605-1.909-1.862a1.232 1.232 0 0 1 1.35-1.164 1.778 1.778 0 0 1 1.21.419l-.326.605a1.383 1.383 0 0 0-.884-.372c-.326 0-.605.186-.605.466 0 .745 1.909.559 1.909 1.862a1.24 1.24 0 0 1-1.35 1.21 2 2 0 0 1-1.4-.559z" class="cls-2" data-name="Path 34" transform="translate(1439.87 -122.165)"/>
    </g>
</svg>
